<svg width="200" height="45" fill="none" xmlns="http://www.w3.org/2000/svg"><path d="M17.063.188c1.916 0 3.541.677 4.875 2.03 1.354 1.355 2.03 2.99 2.03 4.907V45h-4.624V6.719c0-.646-.219-1.188-.657-1.625-.437-.438-.979-.657-1.625-.657-.645 0-1.197.22-1.656.657-.437.437-.656.979-.656 1.625V45h-4.625V6.719c0-.646-.219-1.188-.656-1.625-.438-.438-.98-.657-1.625-.657-.646 0-1.198.22-1.657.657-.437.437-.656.979-.656 1.625V45H.906V7.125c0-1.917.677-3.552 2.031-4.906C4.293.865 5.928.188 7.845.188c1.708 0 3.24.604 4.593 1.812C13.793.792 15.334.187 17.064.187ZM46.98 45V.187h4.625V45h-4.625ZM90.775.187c1.917 0 3.542.678 4.875 2.032 1.354 1.354 2.031 2.99 2.031 4.906V45h-4.625V6.719c0-.646-.218-1.188-.656-1.625-.438-.438-.98-.657-1.625-.657-.646 0-1.198.22-1.656.657-.438.437-.656.979-.656 1.625V45h-4.625V6.719c0-.646-.22-1.188-.657-1.625-.437-.438-.979-.657-1.625-.657s-1.198.22-1.656.657c-.438.437-.656.979-.656 1.625V45h-4.625V7.125c0-1.917.677-3.552 2.031-4.906C78.004.865 79.64.188 81.556.188c1.709 0 3.24.604 4.594 1.812C87.504.792 89.046.187 90.775.187ZM120.694 45V.187h4.625V45h-4.625Zm36.856-24.5V.187h4.625V45h-4.625V24.719h-4.594V45h-4.625V.187h4.625V20.5h4.594Zm29.7-18.281c1.354-1.354 2.99-2.031 4.906-2.031 1.917 0 3.542.677 4.875 2.03 1.354 1.355 2.031 2.99 2.031 4.907v30.969c0 1.916-.677 3.552-2.031 4.906-1.333 1.333-2.958 2-4.875 2-1.916 0-3.552-.667-4.906-2-1.354-1.354-2.031-2.99-2.031-4.906V7.125c0-1.917.677-3.552 2.031-4.906Zm7.188 36.25V6.719c0-.646-.219-1.188-.657-1.625-.437-.438-.979-.657-1.625-.657s-1.198.22-1.656.657c-.438.437-.656.979-.656 1.625v31.75c0 .646.218 1.198.656 1.656.458.438 1.01.656 1.656.656.646 0 1.188-.218 1.625-.656.438-.458.657-1.01.657-1.656Z" fill="#F3C653"/></svg>