<svg width="200" height="45" viewBox="0 0 200 45" fill="none" xmlns="http://www.w3.org/2000/svg">
<path d="M17.0625 0.1875C18.9792 0.1875 20.6042 0.864583 21.9375 2.21875C23.2917 3.57292 23.9688 5.20833 23.9688 7.125V45H19.3438V6.71875C19.3438 6.07292 19.125 5.53125 18.6875 5.09375C18.25 4.65625 17.7083 4.4375 17.0625 4.4375C16.4167 4.4375 15.8646 4.65625 15.4062 5.09375C14.9688 5.53125 14.75 6.07292 14.75 6.71875V45H10.125V6.71875C10.125 6.07292 9.90625 5.53125 9.46875 5.09375C9.03125 4.65625 8.48958 4.4375 7.84375 4.4375C7.19792 4.4375 6.64583 4.65625 6.1875 5.09375C5.75 5.53125 5.53125 6.07292 5.53125 6.71875V45H0.90625V7.125C0.90625 5.20833 1.58333 3.57292 2.9375 2.21875C4.29167 0.864583 5.92708 0.1875 7.84375 0.1875C9.55208 0.1875 11.0833 0.791667 12.4375 2C13.7917 0.791667 15.3333 0.1875 17.0625 0.1875ZM46.9813 45V0.1875H51.6063V45H46.9813ZM90.775 0.1875C92.6917 0.1875 94.3167 0.864583 95.65 2.21875C97.0042 3.57292 97.6813 5.20833 97.6813 7.125V45H93.0563V6.71875C93.0563 6.07292 92.8375 5.53125 92.4 5.09375C91.9625 4.65625 91.4208 4.4375 90.775 4.4375C90.1292 4.4375 89.5771 4.65625 89.1188 5.09375C88.6813 5.53125 88.4625 6.07292 88.4625 6.71875V45H83.8375V6.71875C83.8375 6.07292 83.6188 5.53125 83.1813 5.09375C82.7438 4.65625 82.2021 4.4375 81.5563 4.4375C80.9104 4.4375 80.3583 4.65625 79.9 5.09375C79.4625 5.53125 79.2438 6.07292 79.2438 6.71875V45H74.6188V7.125C74.6188 5.20833 75.2958 3.57292 76.65 2.21875C78.0042 0.864583 79.6396 0.1875 81.5563 0.1875C83.2646 0.1875 84.7958 0.791667 86.15 2C87.5042 0.791667 89.0458 0.1875 90.775 0.1875ZM120.694 45V0.1875H125.319V45H120.694ZM157.55 20.5V0.1875H162.175V45H157.55V24.7188H152.956V45H148.331V0.1875H152.956V20.5H157.55ZM187.25 2.21875C188.604 0.864583 190.24 0.1875 192.156 0.1875C194.073 0.1875 195.698 0.864583 197.031 2.21875C198.385 3.57292 199.062 5.20833 199.062 7.125V38.0938C199.062 40.0104 198.385 41.6458 197.031 43C195.698 44.3333 194.073 45 192.156 45C190.24 45 188.604 44.3333 187.25 43C185.896 41.6458 185.219 40.0104 185.219 38.0938V7.125C185.219 5.20833 185.896 3.57292 187.25 2.21875ZM194.438 38.4688V6.71875C194.438 6.07292 194.219 5.53125 193.781 5.09375C193.344 4.65625 192.802 4.4375 192.156 4.4375C191.51 4.4375 190.958 4.65625 190.5 5.09375C190.062 5.53125 189.844 6.07292 189.844 6.71875V38.4688C189.844 39.1146 190.062 39.6667 190.5 40.125C190.958 40.5625 191.51 40.7812 192.156 40.7812C192.802 40.7812 193.344 40.5625 193.781 40.125C194.219 39.6667 194.438 39.1146 194.438 38.4688Z" fill="#F3C653"/>
</svg>
